<svg width="120" height="56" viewBox="0 0 120 56" fill="none" xmlns="http://www.w3.org/2000/svg">
<g clip-path="url(#clip0_228_1916)">
<mask id="mask0_228_1916" style="mask-type:luminance" maskUnits="userSpaceOnUse" x="0" y="0" width="120" height="56">
<path d="M120 0H0V56H120V0Z" fill="white"/>
</mask>
<g mask="url(#mask0_228_1916)">
<path d="M10.875 52.7331C7.85416 52.7331 5.81248 52.1399 4.75 50.9538C3.70833 49.7483 3.18753 47.9108 3.18753 45.4415V18.1707H0.03125V10.2082H3.18753V0.933105H14.0625V10.2082H17.2188V18.1707H14.0625V42.9913C14.0625 43.7108 14.1875 44.2166 14.4375 44.5082C14.6875 44.7998 15.1667 44.9457 15.875 44.9457C16.375 44.9457 16.8229 44.9065 17.2188 44.8289V51.9457C16.9688 52.0234 16.1875 52.1694 14.875 52.3829C13.5625 52.6166 12.2292 52.7331 10.875 52.7331ZM33.9376 52.7331C30.604 52.7331 27.948 52.15 25.9688 50.9829C23.9896 49.8166 22.5729 48.1344 21.7188 45.9373C20.8646 43.7399 20.4375 41.0956 20.4375 38.004V20.4166C20.4375 16.3525 21.6875 13.2804 24.1876 11.1998C26.6876 9.09977 30.1248 8.04959 34.5 8.04959C43.5 8.04959 48 12.1719 48 20.4166V23.5956C48 27.4457 47.9584 30.0318 47.8752 31.3538H31.6248V39.8124C31.6248 40.5901 31.6772 41.358 31.7812 42.1163C31.8856 42.8555 32.1144 43.4677 32.4688 43.9538C32.8436 44.4399 33.4376 44.6833 34.25 44.6833C35.4168 44.6833 36.146 44.2166 36.4376 43.2833C36.7292 42.3302 36.8752 41.0956 36.8752 39.5791V35.3791H48V37.858C48 41.1247 47.5624 43.8664 46.6876 46.0833C45.8332 48.2804 44.3752 49.9428 42.3124 51.0707C40.2708 52.1791 37.4792 52.7331 33.9376 52.7331ZM31.5624 26.1622H36.8752V20.2707C36.8752 18.6956 36.6668 17.5677 36.25 16.8871C35.8332 16.1871 35.2084 15.8373 34.3752 15.8373C33.4792 15.8373 32.7812 16.1677 32.2812 16.8289C31.802 17.4901 31.5624 18.6373 31.5624 20.2707V26.1622ZM60.5936 52.7331C57.9896 52.7331 56 52.1694 54.6248 51.0415C53.2708 49.9137 52.3436 48.3677 51.8436 46.404C51.3436 44.4399 51.0936 42.2137 51.0936 39.7247C51.0936 37.0609 51.3752 34.8833 51.9376 33.1913C52.5 31.4804 53.4584 30.0804 54.8124 28.9913C56.1876 27.9027 58.0728 26.9791 60.4688 26.2205L67.4064 24.004V19.5124C67.4064 17.1597 66.5832 15.9829 64.9376 15.9829C63.4376 15.9829 62.6876 16.936 62.6876 18.8415V21.4664H51.8124C51.7916 21.3108 51.7812 21.1163 51.7812 20.8833C51.7812 20.6302 51.7812 20.3483 51.7812 20.0373C51.7812 15.6816 52.8752 12.5998 55.0624 10.7913C57.2708 8.96351 60.7604 8.04959 65.5312 8.04959C68.0312 8.04959 70.2708 8.46772 72.25 9.30399C74.2292 10.1205 75.7916 11.336 76.9376 12.95C78.104 14.5635 78.6876 16.5567 78.6876 18.9289V52.2664H67.5624V47.0749C67.0208 48.9027 66.1248 50.3027 64.8752 51.2749C63.6248 52.247 62.198 52.7331 60.5936 52.7331ZM65 44.6247C65.9168 44.6247 66.5416 44.2652 66.8752 43.5457C67.2084 42.8263 67.3752 42.0483 67.3752 41.2124V29.0205C65.8332 29.604 64.6356 30.3428 63.7812 31.2373C62.9272 32.1124 62.5 33.4053 62.5 35.1163V40.7457C62.5 43.3318 63.3332 44.6247 65 44.6247ZM83 52.2664V0.933105H94.3752V52.2664H83Z" fill="white"/>
<path d="M108.534 52.9029C106.432 52.9029 104.628 52.1999 103.122 50.7947C101.616 49.3895 100.863 47.7058 100.863 45.7435C100.863 43.7816 101.616 42.0979 103.122 40.6927C104.628 39.2871 106.432 38.5845 108.534 38.5845C110.636 38.5845 112.44 39.2871 113.946 40.6927C115.451 42.0979 116.204 43.7816 116.204 45.7435C116.204 47.0431 115.849 48.2363 115.139 49.323C114.457 50.4102 113.534 51.2853 112.369 51.9483C111.232 52.5845 109.954 52.9029 108.534 52.9029Z" fill="white"/>
</g>
</g>
<defs>
<clipPath id="clip0_228_1916">
<rect width="120" height="56" fill="white"/>
</clipPath>
</defs>
</svg>
